<svg width="10" height="14" viewBox="0 0 10 14" fill="none" xmlns="http://www.w3.org/2000/svg">
<path d="M4.53992 0.190656L0.373746 4.35683C0.119558 4.61101 0.119558 5.02326 0.373746 5.27745C0.627987 5.53169 1.04013 5.53169 1.29437 5.27745L4.34926 2.22255L4.34926 13.349C4.34926 13.7085 4.64074 14 5.00023 14C5.35966 14 5.65119 13.7085 5.65119 13.349L5.65119 2.22255L8.70608 5.27734C8.96032 5.53158 9.37246 5.53158 9.6267 5.27734C9.75372 5.15027 9.81736 4.98363 9.81736 4.81703C9.81736 4.65044 9.75372 4.48384 9.6267 4.35672L5.46053 0.190655C5.20629 -0.0635845 4.79416 -0.0635845 4.53992 0.190656Z" fill="#F4DC00"/>
</svg>
