<svg width="10" height="14" viewBox="0 0 10 14" fill="none" xmlns="http://www.w3.org/2000/svg">
<path d="M4.53992 13.8093L0.373746 9.64317C0.119558 9.38899 0.119558 8.97674 0.373746 8.72255C0.627987 8.46831 1.04013 8.46831 1.29437 8.72255L4.34926 11.7775L4.34926 0.650964C4.34926 0.291476 4.64074 1.94849e-07 5.00023 2.10563e-07C5.35966 2.26274e-07 5.65119 0.291476 5.65119 0.650964L5.65119 11.7775L8.70608 8.72266C8.96032 8.46842 9.37246 8.46842 9.6267 8.72266C9.75372 8.84973 9.81736 9.01637 9.81736 9.18297C9.81736 9.34956 9.75372 9.51616 9.6267 9.64328L5.46053 13.8093C5.20629 14.0636 4.79416 14.0636 4.53992 13.8093Z" fill="#F4DC00"/>
</svg>
