<svg width="14" height="10" viewBox="0 0 14 10" fill="none" xmlns="http://www.w3.org/2000/svg">
<path d="M0.190655 5.46057L4.35683 9.62674C4.61101 9.88093 5.02326 9.88093 5.27745 9.62674C5.53169 9.3725 5.53169 8.96036 5.27745 8.70612L2.22255 5.65123L13.349 5.65123C13.7085 5.65123 14 5.35975 14 5.00026C14 4.64083 13.7085 4.3493 13.349 4.3493L2.22255 4.3493L5.27734 1.2944C5.53158 1.04016 5.53158 0.628025 5.27734 0.373784C5.15027 0.246768 4.98363 0.18313 4.81703 0.18313C4.65044 0.18313 4.48384 0.246768 4.35672 0.373784L0.190655 4.53995C-0.0635848 4.79419 -0.0635847 5.20633 0.190655 5.46057Z" fill="#222222"/>
</svg>
