<svg width="14" height="10" viewBox="0 0 14 10" fill="none" xmlns="http://www.w3.org/2000/svg">
<path d="M13.8093 5.46057L9.64317 9.62674C9.38899 9.88093 8.97674 9.88093 8.72255 9.62674C8.46831 9.3725 8.46831 8.96036 8.72255 8.70612L11.7775 5.65123L0.650965 5.65123C0.291476 5.65123 3.89699e-07 5.35975 4.21126e-07 5.00026C4.52549e-07 4.64083 0.291476 4.3493 0.650965 4.3493L11.7775 4.3493L8.72266 1.2944C8.46842 1.04016 8.46842 0.628025 8.72266 0.373784C8.84973 0.246768 9.01637 0.18313 9.18297 0.18313C9.34956 0.18313 9.51616 0.246768 9.64328 0.373784L13.8093 4.53995C14.0636 4.79419 14.0636 5.20633 13.8093 5.46057Z" fill="#222222"/>
</svg>
