<svg width="19" height="19" viewBox="0 0 19 19" fill="none" xmlns="http://www.w3.org/2000/svg">
<path d="M9.5 6.04545C7.6 6.04545 6.04545 7.6 6.04545 9.5C6.04545 11.4 7.6 12.9545 9.5 12.9545C11.4 12.9545 12.9545 11.4 12.9545 9.5C12.9545 7.6 11.4 6.04545 9.5 6.04545ZM17.1864 8.63636C16.7545 5.00909 13.9045 2.15909 10.3636 1.81364V0H8.63636V1.81364C5.00909 2.15909 2.15909 5.00909 1.81364 8.63636H0V10.3636H1.81364C2.24545 13.9909 5.09545 16.8409 8.63636 17.1864V19H10.3636V17.1864C13.9909 16.7545 16.8409 13.9045 17.1864 10.3636H19V8.63636H17.1864ZM9.5 15.5455C6.13182 15.5455 3.45455 12.8682 3.45455 9.5C3.45455 6.13182 6.13182 3.45455 9.5 3.45455C12.8682 3.45455 15.5455 6.13182 15.5455 9.5C15.5455 12.8682 12.8682 15.5455 9.5 15.5455Z" fill="#333333"/>
</svg>
