<?xml version="1.0" encoding="UTF-8"?>
<svg xmlns="http://www.w3.org/2000/svg" xmlns:xlink="http://www.w3.org/1999/xlink" width="16pt" height="16pt" viewBox="0 0 16 16" version="1.1">
<g id="surface1">
<path style=" stroke:none;fill-rule:nonzero;fill:rgb(100%,100%,100%);fill-opacity:1;" d="M 15.609375 10.023438 L 8.933594 3.335938 C 8.667969 3.085938 8.355469 2.957031 8 2.957031 C 7.636719 2.957031 7.328125 3.085938 7.074219 3.335938 L 0.390625 10.023438 C 0.128906 10.285156 0 10.59375 0 10.957031 C 0 11.328125 0.128906 11.636719 0.390625 11.882812 L 1.160156 12.652344 C 1.40625 12.914062 1.714844 13.042969 2.085938 13.042969 C 2.453125 13.042969 2.761719 12.914062 3.007812 12.652344 L 8 7.671875 L 12.992188 12.652344 C 13.238281 12.910156 13.546875 13.042969 13.914062 13.042969 C 14.277344 13.042969 14.589844 12.910156 14.851562 12.652344 L 15.621094 11.882812 C 15.875 11.628906 16 11.320312 16 10.957031 C 16 10.59375 15.871094 10.28125 15.609375 10.023438 Z M 15.609375 10.023438 "/>
</g>
</svg>
