<svg width="18" height="18" viewBox="0 0 18 18" fill="none" xmlns="http://www.w3.org/2000/svg">
<g clip-path="url(#clip0)">
<path d="M12.9375 12C13.6612 12 14.25 12.5887 14.25 13.3125L14.25 14.25L17.25 14.25C17.664 14.25 18 14.5853 18 15C18 15.4148 17.664 15.75 17.25 15.75L14.25 15.75L14.25 16.6875C14.25 17.4113 13.6612 18 12.9375 18L11.8125 18C11.0888 18 10.5 17.4113 10.5 16.6875L10.5 15.75L0.749954 15.75C0.336044 15.75 -1.13004e-07 15.4148 -1.31132e-07 15C-1.49261e-07 14.5853 0.336044 14.25 0.749954 14.25L10.5 14.25L10.5 13.3125C10.5 12.5887 11.0888 12 11.8125 12L12.9375 12Z" fill="#F4DC00"/>
<path d="M14.25 1.31243L14.25 2.24997L17.25 2.24997C17.664 2.24997 18 2.58519 18 2.99992C18 3.41465 17.664 3.75001 17.25 3.75001L14.25 3.75001L14.25 4.68741C14.25 5.41127 13.6612 6 12.9375 6L11.8125 6C11.0888 6 10.5 5.41127 10.5 4.68741L10.5 3.75001L0.749954 3.75001C0.336044 3.75001 -1.13009e-07 3.41465 -1.31138e-07 2.99992C-1.49266e-07 2.58519 0.336044 2.24997 0.749954 2.24997L10.5 2.24997L10.5 1.31243C10.5 0.588705 11.0888 -2.25861e-05 11.8125 -2.26177e-05L12.9375 -2.26669e-05C13.6612 -2.26985e-05 14.25 0.588705 14.25 1.31243Z" fill="#F4DC00"/>
<path d="M6.75 7.31255L6.75 8.2501L17.25 8.2501C17.664 8.2501 18 8.58532 18 9.00005C18 9.41478 17.664 9.75 17.25 9.75L6.75 9.75L6.75 10.6875C6.75 11.4113 6.16127 12 5.43755 12L4.31255 12C3.58868 12 2.99995 11.4113 2.99995 10.6875L2.99995 9.75L0.749954 9.75C0.336044 9.75 -1.13003e-07 9.41478 -1.31132e-07 9.00005C-1.49261e-07 8.58532 0.336044 8.2501 0.749954 8.2501L2.99995 8.2501L2.99995 7.31255C2.99995 6.58883 3.58868 6.0001 4.31255 6.0001L5.43755 6.0001C6.16127 6.0001 6.75 6.58883 6.75 7.31255Z" fill="#F4DC00"/>
</g>
<defs>
<clipPath id="clip0">
<rect width="18" height="18" fill="white" transform="matrix(-4.37114e-08 -1 -1 4.37114e-08 18 18)"/>
</clipPath>
</defs>
</svg>
