<svg width="13" height="15" viewBox="0 0 13 15" fill="none" xmlns="http://www.w3.org/2000/svg">
<path d="M11.4056 1.76623H9.40281V0.464782C9.40281 0.202818 9.19151 0 8.92957 0C8.90415 0 8.8872 0.00848546 8.87892 0.0169515C8.87044 0.00848546 8.85349 0 8.84502 0H4.13797H4.10427H4.07036C3.80842 0 3.6056 0.202818 3.6056 0.464782V1.76625H1.59435C1.01961 1.76625 0.571777 2.21408 0.571777 2.78883V3.53251V4.46205H1.45913V13.9859C1.45913 14.5607 1.89849 15 2.47324 15H10.5267C11.1015 15 11.5493 14.5607 11.5493 13.9859V4.46205H12.4282V3.53251V2.78883C12.4282 2.21408 11.9802 1.76623 11.4056 1.76623ZM4.53514 0.929545H8.4648V1.76623H4.53514V0.929545V0.929545ZM10.6113 13.9859C10.6113 14.0452 10.5859 14.0705 10.5267 14.0705H2.47324C2.41411 14.0705 2.38869 14.0452 2.38869 13.9859V4.46203H10.6113V13.9859V13.9859ZM11.4902 3.53249H1.50979V2.78881C1.50979 2.72966 1.53521 2.69578 1.59433 2.69578H11.4056C11.4647 2.69578 11.4902 2.72966 11.4902 2.78881V3.53249Z" fill="#F4DC00"/>
<path d="M9.14065 5.55225H8.20264V13.2423H9.14065V5.55225Z" fill="#F4DC00"/>
<path d="M6.97756 5.55225H6.03955V13.2423H6.97756V5.55225Z" fill="#F4DC00"/>
<path d="M4.81399 5.55225H3.87598V13.2423H4.81399V5.55225Z" fill="#F4DC00"/>
</svg>
