<svg width="15" height="22" viewBox="0 0 15 22" fill="none" xmlns="http://www.w3.org/2000/svg">
<path d="M14.5312 0H0.46875C0.209972 0 0 0.164299 0 0.366667V22H1.875V18.7C1.875 18.4976 2.08497 18.3333 2.34375 18.3333H4.21875C4.47746 18.3333 4.6875 18.4976 4.6875 18.7V22H15V0.366667C15 0.164299 14.79 0 14.5312 0ZM4.6875 16.3167C4.6875 16.4179 4.58251 16.5 4.45312 16.5H2.10938C1.97999 16.5 1.875 16.4179 1.875 16.3167V14.4833C1.875 14.3822 1.97999 14.3001 2.10938 14.3001H4.45312C4.58251 14.3001 4.6875 14.3822 4.6875 14.4833V16.3167ZM4.6875 12.2833C4.6875 12.3845 4.58251 12.4667 4.45312 12.4667H2.10938C1.97999 12.4667 1.875 12.3845 1.875 12.2833V10.45C1.875 10.3488 1.97999 10.2667 2.10938 10.2667H4.45312C4.58251 10.2667 4.6875 10.3488 4.6875 10.45V12.2833ZM4.6875 8.25C4.6875 8.35121 4.58251 8.43333 4.45312 8.43333H2.10938C1.97999 8.43333 1.875 8.35121 1.875 8.25V6.41667C1.875 6.31546 1.97999 6.23333 2.10938 6.23333H4.45312C4.58251 6.23333 4.6875 6.31546 4.6875 6.41667V8.25ZM4.6875 4.21667C4.6875 4.31782 4.58251 4.4 4.45312 4.4H2.10938C1.97999 4.4 1.875 4.31788 1.875 4.21667V2.38333C1.875 2.28212 1.97999 2.2 2.10938 2.2H4.45312C4.58251 2.2 4.6875 2.28212 4.6875 2.38333V4.21667ZM8.90625 16.3167C8.90625 16.4179 8.80126 16.5 8.67188 16.5H6.32812C6.19874 16.5 6.09375 16.4179 6.09375 16.3167V14.4833C6.09375 14.3822 6.19874 14.3001 6.32812 14.3001H8.67188C8.8012 14.3001 8.90625 14.3822 8.90625 14.4833V16.3167ZM8.90625 12.2833C8.90625 12.3845 8.80126 12.4667 8.67188 12.4667H6.32812C6.19874 12.4667 6.09375 12.3845 6.09375 12.2833V10.45C6.09375 10.3488 6.19874 10.2667 6.32812 10.2667H8.67188C8.8012 10.2667 8.90625 10.3488 8.90625 10.45V12.2833ZM8.90625 8.25C8.90625 8.35121 8.80126 8.43333 8.67188 8.43333H6.32812C6.19874 8.43333 6.09375 8.35121 6.09375 8.25V6.41667C6.09375 6.31546 6.19874 6.23333 6.32812 6.23333H8.67188C8.8012 6.23333 8.90625 6.31546 8.90625 6.41667V8.25ZM8.90625 4.21667C8.90625 4.31782 8.80126 4.4 8.67188 4.4H6.32812C6.19874 4.4 6.09375 4.31788 6.09375 4.21667V2.38333C6.09375 2.28212 6.19874 2.2 6.32812 2.2H8.67188C8.8012 2.2 8.90625 2.28212 8.90625 2.38333V4.21667ZM13.125 16.3167C13.125 16.4179 13.02 16.5 12.8906 16.5H10.5469C10.4176 16.5 10.3125 16.4179 10.3125 16.3167V14.4833C10.3125 14.3822 10.4175 14.3001 10.5469 14.3001H12.8906C13.02 14.3001 13.125 14.3822 13.125 14.4833V16.3167ZM13.125 12.2833C13.125 12.3845 13.02 12.4667 12.8906 12.4667H10.5469C10.4176 12.4667 10.3125 12.3845 10.3125 12.2833V10.45C10.3125 10.3488 10.4175 10.2667 10.5469 10.2667H12.8906C13.02 10.2667 13.125 10.3488 13.125 10.45V12.2833ZM13.125 8.25C13.125 8.35121 13.02 8.43333 12.8906 8.43333H10.5469C10.4176 8.43333 10.3125 8.35121 10.3125 8.25V6.41667C10.3125 6.31546 10.4175 6.23333 10.5469 6.23333H12.8906C13.02 6.23333 13.125 6.31546 13.125 6.41667V8.25ZM13.125 4.21667C13.125 4.31782 13.02 4.4 12.8906 4.4H10.5469C10.4176 4.4 10.3125 4.31788 10.3125 4.21667V2.38333C10.3125 2.28212 10.4175 2.2 10.5469 2.2H12.8906C13.02 2.2 13.125 2.28212 13.125 2.38333V4.21667Z" fill="#F4DC00"/>
</svg>
