<svg width="15" height="19" viewBox="0 0 15 19" fill="none" xmlns="http://www.w3.org/2000/svg">
<path id="Facebook Places" d="M13.7353 4.72891C13.6677 4.47543 13.5304 4.20535 13.4288 3.96889C12.213 1.04711 9.55657 0 7.41165 0C4.54027 0 1.37778 1.92538 0.955566 5.89405V6.70487C0.955566 6.73871 0.967228 7.04267 0.983794 7.19472C1.22048 9.08609 2.71291 11.0962 3.82752 12.9876C5.02667 15.014 6.27098 17.0074 7.50375 19C8.2639 17.6996 9.02131 16.3822 9.76415 15.1156C9.9666 14.7438 10.2016 14.3723 10.4043 14.0175C10.5394 13.7813 10.7974 13.545 10.9153 13.3252C12.1144 11.1298 14.0446 8.91743 14.0446 6.73866V5.8436C14.0446 5.6074 13.7518 4.77984 13.7353 4.72891ZM7.46421 8.79922C6.62017 8.79922 5.69631 8.37718 5.2403 7.21164C5.17236 7.0261 5.17784 6.65429 5.17784 6.62023V6.09668C5.17784 4.61083 6.43946 3.93514 7.53701 3.93514C8.88822 3.93514 9.93325 5.01617 9.93325 6.36738C9.93325 7.71854 8.81542 8.79922 7.46421 8.79922Z" fill="#555555"/>
</svg>
