<svg width="179" height="18" viewBox="0 0 179 18" fill="none" xmlns="http://www.w3.org/2000/svg"><path d="M0.761719 17V1.27344H4.12402V8.39551L9.36621 1.27344H13.2549L7.62598 8.43848L13.459 17H9.40918L4.12402 8.77148V17H0.761719ZM22.7832 11.0166L21.0215 5.93555C20.9714 5.78516 20.9069 5.52734 20.8281 5.16211C20.7493 4.79688 20.667 4.34928 20.5811 3.81934C20.488 4.3278 20.3984 4.78613 20.3125 5.19434C20.2266 5.59538 20.1621 5.86393 20.1191 6L18.4219 11.0166H22.7832ZM12.7715 17L18.7549 1.27344H22.6006L28.6699 17H24.8457L23.5674 13.6592H17.4766L16.3809 17H12.7715ZM41.8291 17H28.627L36.7695 3.95898H29.4648V1.27344H42.1621L34.0195 14.293H41.8291V17ZM44.2676 17V1.27344H47.6299V8.39551L52.8721 1.27344H56.7607L51.1318 8.43848L56.9648 17H52.915L47.6299 8.77148V17H44.2676ZM73.8408 9.16895C73.8408 10.2933 73.6296 11.3568 73.207 12.3594C72.7917 13.362 72.1901 14.2428 71.4023 15.002C70.5859 15.7826 69.6657 16.3805 68.6416 16.7959C67.6175 17.2113 66.5576 17.4189 65.4619 17.4189C64.5023 17.4189 63.5605 17.2578 62.6367 16.9355C61.7201 16.6061 60.8786 16.137 60.1123 15.5283C59.124 14.7406 58.3649 13.7988 57.835 12.7031C57.3122 11.6074 57.0508 10.4294 57.0508 9.16895C57.0508 8.03743 57.2585 6.97754 57.6738 5.98926C58.0892 4.99382 58.6979 4.10938 59.5 3.33594C60.2878 2.56966 61.2008 1.97526 62.2393 1.55273C63.2848 1.13021 64.359 0.918945 65.4619 0.918945C66.5576 0.918945 67.6211 1.13021 68.6523 1.55273C69.6908 1.97526 70.6074 2.56966 71.4023 3.33594C72.1973 4.10938 72.8024 4.99382 73.2178 5.98926C73.6331 6.9847 73.8408 8.0446 73.8408 9.16895ZM65.4619 14.4219C66.887 14.4219 68.0615 13.9242 68.9854 12.9287C69.9163 11.9261 70.3818 10.6729 70.3818 9.16895C70.3818 7.67936 69.9128 6.42611 68.9746 5.40918C68.0365 4.39225 66.8656 3.88379 65.4619 3.88379C64.0368 3.88379 62.8551 4.39225 61.917 5.40918C60.9788 6.41895 60.5098 7.6722 60.5098 9.16895C60.5098 10.6872 60.9717 11.944 61.8955 12.9395C62.8193 13.9277 64.0081 14.4219 65.4619 14.4219ZM75.3232 17L77.7188 1.27344H81.2422L84.2715 10.5332C84.3359 10.7266 84.404 11.0094 84.4756 11.3818C84.5544 11.7542 84.626 12.1803 84.6904 12.6602C84.7477 12.1732 84.8122 11.7399 84.8838 11.3604C84.9554 10.9736 85.0234 10.6908 85.0879 10.5117L88.1709 1.27344H91.6406L94.0469 17H90.8564L89.707 7.51465C89.6211 6.81283 89.5638 6.28288 89.5352 5.9248C89.5065 5.56673 89.4922 5.23372 89.4922 4.92578C89.4922 4.76107 89.4922 4.63932 89.4922 4.56055C89.4993 4.47461 89.5065 4.39941 89.5137 4.33496C89.4062 4.95085 89.3024 5.48438 89.2021 5.93555C89.109 6.37956 89.0231 6.71615 88.9443 6.94531L85.6143 17H83.7236L80.4473 6.94531C80.4186 6.85221 80.3542 6.5944 80.2539 6.17188C80.1608 5.74935 80.0283 5.13346 79.8564 4.32422V4.78613C79.8564 5.5166 79.792 6.41178 79.6631 7.47168L79.6523 7.51465L78.5137 17H75.3232ZM114.382 17H110.504L106.368 9.65234V17H103.006V1.27344H107.818C109.73 1.27344 111.163 1.64583 112.115 2.39062C113.068 3.12826 113.544 4.24186 113.544 5.73145C113.544 6.81283 113.218 7.73665 112.566 8.50293C111.915 9.26921 111.073 9.7168 110.042 9.8457L114.382 17ZM106.368 7.97656H106.873C108.234 7.97656 109.132 7.82975 109.569 7.53613C110.006 7.23535 110.225 6.71615 110.225 5.97852C110.225 5.20508 109.988 4.65723 109.516 4.33496C109.05 4.00553 108.169 3.84082 106.873 3.84082H106.368V7.97656ZM116.348 17V1.27344H125.607V4.10938H119.71V7.34277H125.607V10.2002H119.71V14.1426H125.607V17H116.348ZM137.059 11.0166L135.297 5.93555C135.247 5.78516 135.182 5.52734 135.104 5.16211C135.025 4.79688 134.942 4.34928 134.856 3.81934C134.763 4.3278 134.674 4.78613 134.588 5.19434C134.502 5.59538 134.438 5.86393 134.395 6L132.697 11.0166H137.059ZM127.047 17L133.03 1.27344H136.876L142.945 17H139.121L137.843 13.6592H131.752L130.656 17H127.047ZM144.6 17V1.27344H147.962V14.1426H153.333V17H144.6ZM160.122 4.13086V17H156.749V4.13086H152.903V1.27344H163.989V4.13086H160.122ZM169.403 17V9.82422L164.075 1.27344H168.018L170.349 5.58105C170.463 5.7959 170.581 6.06803 170.703 6.39746C170.825 6.72689 170.95 7.10645 171.079 7.53613C171.179 7.1709 171.29 6.82715 171.412 6.50488C171.541 6.18262 171.684 5.86751 171.842 5.55957L174.151 1.27344H178.072L172.766 9.82422V17H169.403Z" fill="#FFFFFF"/></svg>
