<svg width="16" height="12" viewBox="0 0 16 12" fill="none" xmlns="http://www.w3.org/2000/svg">
<path d="M0.528001 1.8097C0.961957 2.04295 6.97085 5.27068 7.19449 5.39086C7.41831 5.51104 7.70809 5.56899 8 5.56899C8.29209 5.56899 8.58151 5.51104 8.80551 5.39086C9.02916 5.27068 15.038 2.04313 15.4718 1.8097C15.9061 1.57664 16.3172 0.844727 15.5195 0.844727H0.480534C-0.316621 0.844727 0.0936898 1.57664 0.528001 1.8097ZM15.6558 3.58748C15.1628 3.84473 9.10738 7.01148 8.80551 7.16864C8.50347 7.32633 8.29191 7.34677 8 7.34677C7.70809 7.34677 7.49654 7.32633 7.19449 7.16864C6.89262 7.01148 0.837512 3.84473 0.344179 3.58748C-0.00302133 3.40668 8.84882e-07 3.61877 8.84882e-07 3.78268C8.84882e-07 3.94659 8.84882e-07 10.3034 8.84882e-07 10.3034C8.84882e-07 10.676 0.496356 11.1558 0.881601 11.1558H15.1184C15.5036 11.1558 16 10.676 16 10.3034C16 10.3034 16 3.94659 16 3.78268C16 3.61877 16.0036 3.40668 15.6558 3.58748Z" fill="#555555"/>
</svg>
