<svg width="24" height="23" viewBox="0 0 24 23" fill="none" xmlns="http://www.w3.org/2000/svg">
<mask id="path-1-inside-1" fill="white">
<path d="M7.03284 6.0734L1.98322 6.07364L3.52936 4.48766C3.65855 4.35388 3.65855 4.13673 3.52936 4.00294C3.40016 3.86916 3.19045 3.86916 3.06126 4.00294L0.954803 6.18416C0.885525 6.25589 0.858137 6.34338 0.865161 6.43014C0.864231 6.51884 0.896061 6.60804 0.961595 6.6759L3.06126 8.85008C3.19045 8.98386 3.40015 8.98388 3.52936 8.85008C3.65855 8.7163 3.65855 8.49915 3.52936 8.36537L1.97783 6.75878L7.03262 6.75902L7.03284 6.0734ZM12.9888 6.42288C12.9898 6.33418 12.958 6.245 12.8927 6.17738L10.7927 4.00294C10.6636 3.86916 10.4538 3.86916 10.3246 4.00294C10.1955 4.13673 10.1955 4.35388 10.3246 4.48766L11.8759 6.09401L6.82115 6.09425L6.82115 6.77961L11.871 6.77963L10.3246 8.36537C10.1955 8.49915 10.1955 8.7163 10.3246 8.85008C10.4538 8.98386 10.6636 8.98386 10.7927 8.85008L12.8992 6.66887C12.9685 6.59713 12.9959 6.50966 12.9888 6.42288Z"/>
</mask>
<path d="M7.03284 6.0734L1.98322 6.07364L3.52936 4.48766C3.65855 4.35388 3.65855 4.13673 3.52936 4.00294C3.40016 3.86916 3.19045 3.86916 3.06126 4.00294L0.954803 6.18416C0.885525 6.25589 0.858137 6.34338 0.865161 6.43014C0.864231 6.51884 0.896061 6.60804 0.961595 6.6759L3.06126 8.85008C3.19045 8.98386 3.40015 8.98388 3.52936 8.85008C3.65855 8.7163 3.65855 8.49915 3.52936 8.36537L1.97783 6.75878L7.03262 6.75902L7.03284 6.0734ZM12.9888 6.42288C12.9898 6.33418 12.958 6.245 12.8927 6.17738L10.7927 4.00294C10.6636 3.86916 10.4538 3.86916 10.3246 4.00294C10.1955 4.13673 10.1955 4.35388 10.3246 4.48766L11.8759 6.09401L6.82115 6.09425L6.82115 6.77961L11.871 6.77963L10.3246 8.36537C10.1955 8.49915 10.1955 8.7163 10.3246 8.85008C10.4538 8.98386 10.6636 8.98386 10.7927 8.85008L12.8992 6.66887C12.9685 6.59713 12.9959 6.50966 12.9888 6.42288Z" fill="#555555"/>
<path d="M7.03284 6.0734L7.98823 6.07373L7.98855 5.08405L7.0328 5.0841L7.03284 6.0734ZM1.98322 6.07364L1.31085 5.37081L-0.338887 7.06305L1.98326 7.06294L1.98322 6.07364ZM3.52936 4.48766L4.20174 5.1905L4.20492 5.1872L3.52936 4.48766ZM0.865161 6.43014L1.8205 6.44088L1.82099 6.3941L1.81721 6.34748L0.865161 6.43014ZM1.97783 6.75878L1.97788 5.76948L-0.328798 5.76937L1.30227 7.45832L1.97783 6.75878ZM7.03262 6.75902L7.03258 7.74832L7.9877 7.74837L7.98801 6.75935L7.03262 6.75902ZM12.9888 6.42288L12.0335 6.41199L12.033 6.45883L12.0368 6.50551L12.9888 6.42288ZM11.8759 6.09401L11.876 7.08331L14.1824 7.0832L12.5515 5.39446L11.8759 6.09401ZM6.82115 6.09425L6.82111 5.10495L5.86576 5.10499V6.09425L6.82115 6.09425ZM6.82115 6.77961H5.86576V7.76891L6.82115 7.76891L6.82115 6.77961ZM11.871 6.77963L12.5433 7.48256L14.1935 5.79033L11.871 5.79032L11.871 6.77963ZM10.3246 8.36537L9.65237 7.66242L9.64908 7.66583L10.3246 8.36537ZM7.0328 5.0841L1.98317 5.08434L1.98326 7.06294L7.03289 7.0627L7.0328 5.0841ZM2.65559 6.77647L4.20173 5.19049L2.85698 3.78483L1.31085 5.37081L2.65559 6.77647ZM4.20492 5.1872C4.70722 4.66707 4.70722 3.82353 4.20492 3.3034L2.85379 4.70249C2.60988 4.44992 2.60988 4.04068 2.85379 3.78812L4.20492 5.1872ZM4.20492 3.3034C3.70262 2.78327 2.88799 2.78328 2.38569 3.3034L3.73682 4.70249C3.49291 4.95505 3.0977 4.95505 2.85379 4.70249L4.20492 3.3034ZM2.38569 3.3034L0.279238 5.48461L1.63037 6.8837L3.73682 4.70249L2.38569 3.3034ZM0.279238 5.48461C0.008834 5.76462 -0.11714 6.13923 -0.0868922 6.51279L1.81721 6.34748C1.83341 6.54753 1.76222 6.74717 1.63037 6.8837L0.279238 5.48461ZM-0.0901768 6.4194C-0.093748 6.76004 0.0293387 7.10964 0.28603 7.37545L1.63716 5.97636C1.76278 6.10644 1.82221 6.27765 1.8205 6.44088L-0.0901768 6.4194ZM0.28603 7.37545L2.38569 9.54962L3.73682 8.15054L1.63716 5.97636L0.28603 7.37545ZM2.38569 9.54962C2.88797 10.0697 3.70259 10.0698 4.20492 9.54962L2.85379 8.15054C3.09771 7.89796 3.49294 7.898 3.73682 8.15054L2.38569 9.54962ZM4.20492 9.54962C4.70722 9.0295 4.70722 8.18595 4.20492 7.66583L2.85379 9.06491C2.60988 8.81234 2.60988 8.40311 2.85379 8.15054L4.20492 9.54962ZM4.20492 7.66583L2.6534 6.05924L1.30227 7.45832L2.85379 9.06491L4.20492 7.66583ZM1.97779 7.74808L7.03258 7.74832L7.03266 5.76972L1.97788 5.76948L1.97779 7.74808ZM7.98801 6.75935L7.98823 6.07373L6.07745 6.07307L6.07723 6.75869L7.98801 6.75935ZM13.9442 6.43376C13.9478 6.09361 13.8251 5.74379 13.5682 5.47784L12.2171 6.87692C12.0909 6.74621 12.0318 6.57476 12.0335 6.41199L13.9442 6.43376ZM13.5682 5.47784L11.4683 3.3034L10.1172 4.70249L12.2171 6.87692L13.5682 5.47784ZM11.4683 3.3034C10.966 2.78328 10.1514 2.78327 9.64908 3.3034L11.0002 4.70249C10.7563 4.95505 10.3611 4.95505 10.1172 4.70249L11.4683 3.3034ZM9.64908 3.3034C9.14678 3.82353 9.14678 4.66708 9.64908 5.1872L11.0002 3.78812C11.2441 4.04068 11.2441 4.44992 11.0002 4.70249L9.64908 3.3034ZM9.64908 5.1872L11.2004 6.79355L12.5515 5.39446L11.0002 3.78812L9.64908 5.1872ZM11.8759 5.1047L6.82111 5.10495L6.82119 7.08355L11.876 7.08331L11.8759 5.1047ZM5.86576 6.09425L5.86576 6.77961H7.77654L7.77654 6.09425L5.86576 6.09425ZM6.82115 7.76891L11.871 7.76893L11.871 5.79032L6.82115 5.79031L6.82115 7.76891ZM11.1987 6.07669L9.65238 7.66243L10.9969 9.06831L12.5433 7.48256L11.1987 6.07669ZM9.64908 7.66583C9.14678 8.18595 9.14678 9.0295 9.64908 9.54962L11.0002 8.15054C11.2441 8.40311 11.2441 8.81234 11.0002 9.06491L9.64908 7.66583ZM9.64908 9.54962C10.1514 10.0698 10.966 10.0698 11.4683 9.54962L10.1172 8.15054C10.3611 7.89798 10.7563 7.89798 11.0002 8.15054L9.64908 9.54962ZM11.4683 9.54962L13.5748 7.36841L12.2236 5.96933L10.1172 8.15054L11.4683 9.54962ZM13.5748 7.36841C13.8452 7.08834 13.9711 6.71371 13.9409 6.34024L12.0368 6.50551C12.0206 6.3056 12.0917 6.10593 12.2236 5.96933L13.5748 7.36841Z" fill="#555555" mask="url(#path-1-inside-1)"/>
<mask id="path-3-inside-2" fill="white">
<path d="M17.9402 16.6828L17.94 11.454L19.4716 13.055C19.6008 13.1888 19.8105 13.1888 19.9397 13.055C20.0689 12.9212 20.0689 12.7041 19.9397 12.5703L17.8332 10.3891C17.7639 10.3173 17.6795 10.289 17.5957 10.2963C17.51 10.2953 17.4239 10.3283 17.3583 10.3961L15.2587 12.5703C15.1295 12.7041 15.1295 12.9212 15.2587 13.055C15.3879 13.1888 15.5976 13.1888 15.7268 13.055L17.2783 11.4484L17.2781 16.6826L17.9402 16.6828ZM17.6027 22.8502C17.6883 22.8512 17.7745 22.8182 17.8398 22.7506L19.9397 20.5762C20.0689 20.4424 20.0689 20.2253 19.9397 20.0915C19.8105 19.9577 19.6008 19.9577 19.4716 20.0915L17.9203 21.6978L17.9201 16.4636H17.2582L17.2582 21.6927L15.7268 20.0915C15.5976 19.9577 15.3879 19.9577 15.2587 20.0915C15.1295 20.2253 15.1295 20.4424 15.2587 20.5762L17.3651 22.7574C17.4344 22.8291 17.5189 22.8575 17.6027 22.8502Z"/>
</mask>
<path d="M17.9402 16.6828L17.94 11.454L19.4716 13.055C19.6008 13.1888 19.8105 13.1888 19.9397 13.055C20.0689 12.9212 20.0689 12.7041 19.9397 12.5703L17.8332 10.3891C17.7639 10.3173 17.6795 10.289 17.5957 10.2963C17.51 10.2953 17.4239 10.3283 17.3583 10.3961L15.2587 12.5703C15.1295 12.7041 15.1295 12.9212 15.2587 13.055C15.3879 13.1888 15.5976 13.1888 15.7268 13.055L17.2783 11.4484L17.2781 16.6826L17.9402 16.6828ZM17.6027 22.8502C17.6883 22.8512 17.7745 22.8182 17.8398 22.7506L19.9397 20.5762C20.0689 20.4424 20.0689 20.2253 19.9397 20.0915C19.8105 19.9577 19.6008 19.9577 19.4716 20.0915L17.9203 21.6978L17.9201 16.4636H17.2582L17.2582 21.6927L15.7268 20.0915C15.5976 19.9577 15.3879 19.9577 15.2587 20.0915C15.1295 20.2253 15.1295 20.4424 15.2587 20.5762L17.3651 22.7574C17.4344 22.8291 17.5189 22.8575 17.6027 22.8502Z" fill="#555555"/>
<path d="M17.9402 16.6828L17.9399 17.6721L18.8956 17.6725L18.8956 16.6828L17.9402 16.6828ZM17.94 11.454L18.6187 10.7578L16.9844 9.04947L16.9846 11.454L17.94 11.454ZM19.4716 13.055L18.7928 13.7513L18.796 13.7546L19.4716 13.055ZM17.5957 10.2963L17.5853 11.2855L17.6305 11.286L17.6755 11.2821L17.5957 10.2963ZM17.2783 11.4484L18.2337 11.4485L18.2338 9.05991L16.6027 10.7489L17.2783 11.4484ZM17.2781 16.6826L16.3227 16.6826L16.3226 17.6716L17.2777 17.6719L17.2781 16.6826ZM17.6027 22.8502L17.6132 21.861L17.568 21.8604L17.5229 21.8644L17.6027 22.8502ZM17.9203 21.6978L16.9649 21.6979L16.965 24.0861L18.5959 22.3974L17.9203 21.6978ZM17.9201 16.4636L18.8755 16.4636L18.8754 15.4743H17.9201V16.4636ZM17.2582 16.4636V15.4743H16.3028L16.3028 16.4636L17.2582 16.4636ZM17.2582 21.6927L16.5793 22.3889L18.2136 24.0977L18.2136 21.6927L17.2582 21.6927ZM15.7268 20.0915L16.4056 19.3953L16.4023 19.3919L15.7268 20.0915ZM18.8956 16.6828L18.8954 11.454L16.9846 11.454L16.9848 16.6829L18.8956 16.6828ZM17.2612 12.1502L18.7928 13.7513L20.1503 12.3588L18.6187 10.7578L17.2612 12.1502ZM18.796 13.7546C19.2983 14.2747 20.1129 14.2747 20.6152 13.7546L19.2641 12.3555C19.508 12.1029 19.9032 12.1029 20.1471 12.3555L18.796 13.7546ZM20.6152 13.7546C21.1175 13.2344 21.1175 12.3909 20.6152 11.8708L19.2641 13.2698C19.0202 13.0173 19.0202 12.608 19.2641 12.3555L20.6152 13.7546ZM20.6152 11.8708L18.5088 9.68954L17.1577 11.0886L19.2641 13.2698L20.6152 11.8708ZM18.5088 9.68954C18.2384 9.40954 17.8766 9.27909 17.5158 9.31041L17.6755 11.2821C17.4823 11.2989 17.2895 11.2252 17.1577 11.0886L18.5088 9.68954ZM17.606 9.30701C17.2771 9.30331 16.9395 9.43077 16.6828 9.69657L18.0339 11.0957C17.9083 11.2257 17.7429 11.2873 17.5853 11.2855L17.606 9.30701ZM16.6828 9.69657L14.5831 11.8708L15.9342 13.2698L18.0339 11.0957L16.6828 9.69657ZM14.5831 11.8708C14.0808 12.3909 14.0808 13.2344 14.5831 13.7546L15.9342 12.3555C16.1782 12.608 16.1781 13.0173 15.9342 13.2698L14.5831 11.8708ZM14.5831 13.7546C15.0854 14.2747 15.9 14.2747 16.4023 13.7546L15.0512 12.3555C15.2951 12.1029 15.6903 12.1029 15.9342 12.3555L14.5831 13.7546ZM16.4023 13.7546L17.9539 12.148L16.6027 10.7489L15.0512 12.3555L16.4023 13.7546ZM16.3229 11.4484L16.3227 16.6826L18.2335 16.6827L18.2337 11.4485L16.3229 11.4484ZM17.2777 17.6719L17.9399 17.6721L17.9405 15.6935L17.2784 15.6933L17.2777 17.6719ZM17.5922 23.8395C17.9207 23.8432 18.2585 23.7161 18.5153 23.4502L17.1642 22.0511C17.2904 21.9204 17.456 21.8592 17.6132 21.861L17.5922 23.8395ZM18.5153 23.4502L20.6152 21.2757L19.2641 19.8766L17.1642 22.0511L18.5153 23.4502ZM20.6152 21.2757C21.1175 20.7556 21.1175 19.9121 20.6152 19.3919L19.2641 20.791C19.0202 20.5384 19.0202 20.1292 19.2641 19.8766L20.6152 21.2757ZM20.6152 19.3919C20.1129 18.8718 19.2983 18.8718 18.796 19.3919L20.1471 20.791C19.9032 21.0436 19.508 21.0436 19.2641 20.791L20.6152 19.3919ZM18.796 19.3919L17.2447 20.9983L18.5959 22.3974L20.1471 20.791L18.796 19.3919ZM18.8757 21.6978L18.8755 16.4636L16.9647 16.4637L16.9649 21.6979L18.8757 21.6978ZM17.9201 15.4743H17.2582V17.4529L17.9201 17.4529L17.9201 15.4743ZM16.3028 16.4636L16.3028 21.6927L18.2136 21.6927L18.2136 16.4636L16.3028 16.4636ZM17.937 20.9966L16.4056 19.3953L15.0479 20.7876L16.5793 22.3889L17.937 20.9966ZM16.4023 19.3919C15.9 18.8718 15.0854 18.8718 14.5831 19.3919L15.9342 20.791C15.6903 21.0436 15.2951 21.0436 15.0512 20.791L16.4023 19.3919ZM14.5831 19.3919C14.0808 19.9121 14.0808 20.7556 14.5831 21.2757L15.9342 19.8766C16.1782 20.1292 16.1782 20.5385 15.9342 20.791L14.5831 19.3919ZM14.5831 21.2757L16.6896 23.4569L18.0407 22.0579L15.9342 19.8766L14.5831 21.2757ZM16.6896 23.4569C16.96 23.737 17.3218 23.8674 17.6825 23.8361L17.5229 21.8644C17.7159 21.8476 17.9088 21.9213 18.0407 22.0579L16.6896 23.4569Z" fill="#555555" mask="url(#path-3-inside-2)"/>
<rect x="0.822021" y="10.6787" width="12.3212" height="11.4998" rx="2" fill="#555555"/>
</svg>
